<?xml version="1.0" standalone="no"?>
<!DOCTYPE svg PUBLIC "-//W3C//DTD SVG 20010904//EN"
 "http://www.w3.org/TR/2001/REC-SVG-20010904/DTD/svg10.dtd">
<svg version="1.0" xmlns="http://www.w3.org/2000/svg"
 width="700.000000pt" height="700.000000pt" viewBox="0 0 700.000000 700.000000"
 preserveAspectRatio="xMidYMid meet">
<metadata>
Created by potrace 1.11, written by Peter Selinger 2001-2013
</metadata>
<g transform="translate(0.000000,700.000000) scale(0.100000,-0.100000)"
fill="#000000" stroke="none">
<path d="M3610 6700 c-105 -22 -166 -43 -250 -85 -215 -109 -381 -307 -434
-520 -21 -84 -24 -109 -25 -206 l-1 -86 -32 3 c-18 2 -70 11 -117 19 -48 8
-106 17 -131 20 -25 4 -85 13 -133 21 -101 18 -140 20 -182 11 -16 -4 -57 -12
-90 -17 -90 -15 -113 -19 -200 -35 -44 -8 -154 -28 -245 -44 -91 -16 -176 -32
-190 -34 -14 -3 -45 -8 -70 -12 -25 -4 -54 -9 -65 -11 -11 -2 -94 -17 -185
-34 -91 -17 -175 -32 -186 -34 -12 -3 -39 -7 -60 -10 -72 -11 -159 -26 -204
-36 -25 -5 -87 -16 -137 -26 l-93 -16 -1 -37 c-1 -20 -2 -47 -4 -61 -1 -14 -6
-68 -10 -120 -3 -52 -8 -111 -10 -130 -2 -19 -6 -78 -10 -130 -4 -52 -8 -106
-10 -120 -2 -14 -7 -68 -10 -120 -3 -52 -7 -111 -10 -130 -2 -19 -7 -71 -10
-115 -3 -44 -8 -102 -10 -130 -3 -27 -7 -81 -10 -120 -3 -38 -7 -92 -10 -120
-2 -27 -7 -86 -10 -130 -4 -44 -8 -96 -10 -115 -2 -19 -6 -71 -10 -115 -6 -84
-12 -160 -20 -260 -9 -104 -14 -167 -21 -255 -3 -47 -7 -103 -9 -125 -11 -124
-16 -187 -21 -245 -2 -36 -7 -83 -9 -105 -2 -22 -7 -83 -10 -135 -3 -52 -8
-111 -10 -130 -2 -19 -7 -73 -10 -120 -4 -47 -8 -105 -10 -130 -2 -25 -7 -81
-10 -125 -3 -44 -8 -100 -10 -125 -2 -25 -6 -79 -10 -120 -3 -41 -8 -95 -10
-120 -2 -25 -7 -79 -10 -120 -5 -77 -14 -188 -20 -250 -2 -19 -6 -78 -10 -130
-3 -52 -8 -106 -10 -120 -2 -14 -7 -70 -10 -125 -4 -55 -8 -106 -10 -115 -1
-8 -6 -58 -10 -110 -3 -52 -9 -112 -11 -132 -5 -42 -3 -43 61 -28 84 19 105
21 105 8 0 -9 3 -8 10 2 5 8 13 15 17 16 8 0 80 13 113 19 8 2 24 7 34 11 15
6 17 4 11 -7 -8 -12 -6 -12 8 -1 9 8 21 11 27 7 5 -3 10 -1 10 4 0 6 10 11 23
10 12 0 31 1 42 3 15 2 19 -2 17 -17 -2 -15 -1 -17 7 -6 5 8 7 21 3 30 -3 9
-2 13 2 9 4 -3 21 -2 37 2 22 7 28 6 22 -3 -4 -7 0 -6 10 2 14 11 20 11 32 1
13 -11 14 -10 9 6 -4 10 -4 16 0 12 5 -4 19 -3 32 2 17 7 24 6 24 -3 0 -9 2
-9 8 1 8 12 28 19 82 27 14 2 41 6 60 10 19 4 46 8 60 10 31 5 65 13 65 15 0
1 12 3 28 5 18 2 25 0 21 -7 -4 -7 -2 -8 4 -4 7 4 12 2 12 -3 0 -6 5 -11 12
-11 9 0 9 3 0 12 -18 18 -15 25 10 24 13 -1 32 2 43 8 11 5 36 11 55 12 19 2
45 6 58 9 52 12 69 16 109 24 24 5 43 6 43 3 0 -2 7 1 15 8 22 18 18 -4 -4
-24 -12 -11 -21 -14 -26 -7 -3 6 -11 11 -18 11 -6 0 -3 -6 7 -13 17 -13 16
-15 -13 -40 -17 -14 -31 -29 -31 -33 0 -3 7 -1 15 6 13 10 19 10 33 -4 10 -9
22 -16 27 -16 4 0 -2 9 -15 20 l-23 20 41 39 c22 21 38 42 35 45 -4 3 1 6 10
6 26 0 21 -14 -18 -49 -19 -17 -35 -39 -34 -49 0 -13 2 -12 9 4 13 33 29 38
51 18 18 -16 19 -16 13 -1 -3 10 -1 17 5 17 6 0 11 -5 11 -11 0 -8 5 -8 15 1
12 10 18 10 30 0 8 -7 15 -19 15 -26 0 -8 5 -14 10 -14 17 0 -7 37 -47 74
l-36 33 31 11 c18 6 32 7 32 3 0 -5 20 -29 44 -54 25 -25 42 -48 39 -51 -4 -3
-1 -6 5 -6 21 0 13 15 -35 63 -25 26 -44 49 -42 52 3 2 18 6 34 9 36 7 71 14
105 21 14 3 41 8 60 11 19 3 41 7 49 10 8 2 30 7 50 10 l36 5 -29 -25 c-16
-14 -25 -26 -21 -26 5 0 16 7 26 16 16 14 18 14 29 -5 6 -12 15 -21 21 -21 5
0 1 9 -10 21 -20 22 -19 45 2 47 7 0 24 3 38 6 17 4 31 1 39 -9 10 -12 7 -14
-22 -10 -18 2 -40 -1 -48 -6 -13 -9 -12 -10 3 -5 19 6 107 -68 95 -80 -4 -3
-17 3 -29 15 -13 12 -27 21 -31 21 -5 0 -7 4 -4 9 5 8 -15 21 -31 21 -2 0 17
-20 43 -45 35 -34 49 -42 56 -33 13 21 10 26 -29 63 -20 19 -31 35 -24 35 7 0
29 -16 48 -35 l36 -36 19 21 c10 11 14 20 9 20 -6 0 -14 -7 -19 -15 -7 -13
-13 -11 -35 15 -15 16 -25 30 -22 30 3 0 1 9 -5 21 -9 16 -8 20 2 18 7 -1 26
1 42 6 20 5 31 4 37 -6 7 -11 9 -10 9 3 0 20 17 20 38 0 8 -7 17 -10 20 -7 4
3 0 10 -8 15 -13 8 -13 10 1 10 9 0 32 -14 52 -31 31 -27 35 -33 22 -43 -8 -6
-13 -20 -11 -31 2 -12 -5 -25 -18 -33 -15 -10 -16 -12 -3 -8 11 3 20 0 24 -10
4 -12 9 -10 23 11 10 15 21 26 26 25 5 0 10 7 11 17 2 15 1 15 -6 -2 -5 -11
-10 -15 -11 -10 0 6 -9 -1 -20 -15 -19 -25 -19 -25 -17 -2 1 12 5 22 9 22 4 0
8 5 8 11 0 5 -4 7 -10 4 -17 -11 -11 7 7 20 15 12 14 15 -13 38 -16 15 -23 27
-16 27 7 0 26 -12 42 -27 26 -22 28 -28 15 -35 -8 -5 -15 -13 -15 -19 0 -5 10
-1 21 10 l21 20 -28 26 c-27 25 -28 26 -4 14 14 -7 46 -13 71 -14 25 -1 51 -5
57 -9 7 -4 26 -8 42 -8 17 -1 30 -6 30 -12 0 -6 5 -4 10 4 6 9 10 10 10 3 0
-6 10 -12 23 -12 12 0 32 -1 45 -1 12 0 22 -4 22 -10 0 -5 14 -7 31 -5 24 3
37 -3 65 -30 18 -18 34 -29 34 -25 0 5 -10 19 -22 31 l-23 21 22 -6 c12 -4 31
-9 42 -11 12 -2 26 -7 31 -10 6 -3 10 0 10 7 0 8 3 9 8 3 4 -5 23 -11 42 -13
19 -2 40 -8 45 -14 7 -7 2 -8 -15 -4 l-25 7 25 -15 c14 -9 21 -15 16 -16 -5 0
7 -13 25 -30 19 -16 28 -30 22 -30 -7 0 -22 9 -33 20 -11 11 -20 16 -20 12 0
-4 5 -13 12 -20 9 -9 7 -13 -5 -18 -9 -3 -17 -11 -17 -16 0 -6 6 -5 15 2 10 9
15 9 15 1 0 -6 5 -11 11 -11 8 0 8 4 0 13 -8 11 -5 14 19 14 l30 0 -22 -24
c-12 -13 -17 -23 -12 -23 5 0 16 9 24 19 7 11 17 18 22 15 8 -5 78 62 78 74 0
2 -15 -9 -34 -25 -18 -15 -31 -31 -29 -35 11 -21 -21 -4 -57 31 -27 26 -38 44
-34 55 3 9 10 13 15 10 5 -3 7 -9 4 -14 -6 -9 40 -60 54 -60 13 0 51 37 45 43
-4 3 -15 -4 -25 -16 l-18 -22 -25 27 c-17 18 -22 29 -15 34 10 6 23 -6 33 -31
2 -6 9 -4 17 4 8 8 9 11 2 7 -6 -3 -15 -2 -18 4 -4 7 3 9 22 6 15 -2 28 -5 28
-6 0 -1 14 -3 30 -6 17 -2 41 -5 55 -7 14 -3 30 -5 37 -6 6 0 15 -11 19 -23
l6 -21 14 24 c7 13 13 18 14 11 0 -8 9 -11 25 -8 15 3 23 1 19 -5 -3 -6 4 -7
20 -3 14 3 26 2 26 -3 0 -5 17 -10 38 -11 65 -1 72 -3 72 -15 0 -7 4 -6 10 3
6 9 10 10 10 3 0 -7 11 -10 28 -9 15 2 31 1 37 -2 9 -6 44 -12 75 -14 8 -1 21
-8 28 -17 11 -14 11 -14 6 1 -4 13 -1 15 15 11 12 -3 21 -9 21 -13 0 -4 12 -8
28 -7 71 1 81 -2 77 -23 -2 -11 0 -18 5 -15 4 3 10 0 12 -7 2 -6 16 -12 30
-12 15 -1 24 2 21 7 -3 5 -14 6 -25 4 -14 -4 -18 -1 -14 9 3 7 2 13 -2 11 -6
-2 -16 12 -9 14 12 5 97 -16 97 -23 0 -7 5 -6 13 1 14 11 27 5 27 -11 0 -5 -5
-6 -12 -2 -7 5 -8 3 -3 -6 6 -10 11 -10 20 4 10 13 18 14 39 6 14 -5 26 -6 26
-2 0 4 6 -2 12 -12 9 -15 7 -22 -8 -33 -10 -7 -13 -13 -7 -13 18 0 34 27 27
46 -6 15 -4 17 6 7 7 -6 19 -9 26 -6 18 7 46 -16 37 -30 -3 -6 -1 -7 6 -3 6 4
8 12 5 18 -5 8 2 8 22 3 16 -4 43 -9 59 -11 17 -1 55 -8 85 -14 30 -7 66 -12
80 -13 16 -1 24 -7 22 -16 -3 -12 0 -12 12 -2 8 7 20 10 25 7 6 -4 26 -7 46
-8 19 -1 35 -4 35 -8 0 -8 166 -5 220 4 19 3 52 8 74 12 29 5 37 3 31 -6 -4
-7 5 -4 21 6 15 11 25 13 21 7 -5 -7 -4 -13 2 -13 6 0 11 5 11 11 0 6 10 10
23 9 12 -1 24 -1 27 0 11 4 48 10 95 15 28 3 58 8 68 11 10 3 25 0 34 -8 9 -7
14 -8 10 -2 -4 7 2 14 13 17 11 3 20 0 20 -6 0 -8 4 -7 12 1 7 7 19 12 27 12
14 0 14 -1 1 -10 -8 -5 -11 -10 -7 -10 4 0 19 7 32 16 14 9 36 14 50 12 14 -3
28 -2 30 2 2 4 15 7 27 6 13 -1 26 3 30 9 5 6 8 6 8 -2 0 -8 11 -8 43 2 23 7
54 11 70 9 15 -1 27 2 27 7 0 6 5 7 10 4 8 -5 8 -11 0 -20 -13 -16 -2 -25 26
-21 12 2 19 11 18 25 -1 24 21 29 30 6 3 -8 11 -15 18 -14 10 0 10 2 1 6 -7 2
-13 12 -13 21 0 13 2 14 9 3 6 -9 10 -10 16 -2 3 7 15 9 26 6 10 -4 19 -2 19
3 0 5 7 9 15 9 8 0 12 -4 9 -9 -3 -4 0 -8 5 -8 6 0 11 4 11 9 0 5 13 8 30 7
16 -1 31 3 33 8 3 6 8 7 13 3 5 -5 -1 -17 -13 -27 -18 -14 -20 -19 -8 -24 8
-3 14 -2 12 2 -6 20 32 52 69 57 21 3 49 7 62 9 12 3 22 0 22 -5 0 -5 7 -9 15
-9 8 0 15 -4 15 -10 0 -15 -26 -12 -40 5 -7 8 -17 15 -22 15 -6 0 0 -8 13 -18
l22 -19 -28 -37 c-15 -20 -25 -39 -21 -43 3 -3 6 -1 6 5 0 7 19 31 42 54 39
39 40 42 22 56 -18 14 -18 14 4 9 12 -3 22 -1 22 4 0 5 5 9 11 9 5 0 8 -4 5
-9 -3 -5 1 -11 9 -15 9 -3 12 -12 9 -23 -5 -15 -4 -15 5 -3 6 9 7 18 1 24 -13
13 -13 29 -1 22 5 -4 11 -1 13 5 2 7 18 -2 38 -19 19 -17 31 -34 28 -38 -4 -3
-19 6 -33 21 -15 14 -29 24 -31 22 -2 -2 9 -16 25 -31 28 -27 58 -28 47 -1 -2
7 3 23 12 36 15 22 15 23 -1 10 -11 -9 -17 -10 -17 -2 0 12 0 12 50 15 19 1
41 5 48 9 7 5 12 3 12 -4 0 -8 4 -8 13 -2 12 11 25 13 89 14 21 1 36 4 33 8
-2 4 2 8 10 8 19 0 19 -11 0 -27 -8 -7 -15 -17 -15 -23 0 -5 9 0 20 13 11 13
20 18 20 12 0 -7 14 -24 31 -39 17 -16 35 -36 40 -45 8 -15 5 -17 -21 -13 -17
2 -28 0 -25 -5 6 -10 54 -8 55 3 0 4 0 10 0 15 0 4 -18 26 -40 50 -39 41 -49
62 -31 62 5 0 13 -9 16 -20 7 -22 13 -24 32 -12 8 5 9 13 3 22 -8 12 -10 11
-10 -5 0 -15 -3 -16 -12 -7 -18 18 6 31 49 27 20 -2 33 2 33 8 0 7 4 6 10 -3
6 -9 5 -17 -3 -23 -8 -6 -7 -7 3 -4 8 2 14 12 13 22 -1 14 5 16 33 13 18 -2
35 -1 36 3 2 4 26 10 53 13 56 7 98 13 151 22 l36 5 -7 64 c-3 36 -8 88 -10
117 -2 29 -6 78 -9 108 -3 30 -8 84 -11 120 -4 36 -8 81 -10 100 -2 19 -7 69
-10 110 -4 41 -8 91 -10 110 -2 19 -7 71 -10 115 -4 44 -8 94 -10 110 -1 17
-6 68 -10 115 -4 47 -9 99 -10 115 -2 17 -6 68 -10 115 -4 47 -8 95 -10 108
-2 12 -7 62 -10 110 -4 48 -8 98 -10 112 -2 14 -7 61 -10 105 -4 44 -8 97 -11
118 -2 20 -6 68 -9 105 -3 37 -7 87 -10 112 -2 25 -7 74 -10 110 -3 36 -8 85
-11 110 -2 25 -7 77 -9 115 -3 39 -7 86 -10 105 -2 19 -7 69 -10 110 -3 41 -8
95 -10 120 -3 25 -7 74 -10 110 -3 36 -8 81 -10 100 -2 19 -6 71 -10 115 -3
44 -8 94 -10 110 -2 17 -6 73 -10 125 -4 52 -9 102 -10 111 -2 9 -6 56 -10
105 -3 49 -8 100 -10 114 -3 14 -7 59 -10 100 -3 41 -7 95 -10 120 -2 25 -7
68 -9 95 -3 28 -8 84 -11 125 -4 41 -8 86 -10 100 -2 14 -6 63 -10 110 -4 47
-8 99 -9 115 -2 17 -7 68 -11 115 -4 47 -9 99 -10 115 -2 17 -6 66 -10 110 -8
91 -9 95 -33 91 -27 -5 -102 -15 -152 -21 -25 -3 -56 -7 -70 -10 -14 -2 -45
-7 -70 -10 -25 -4 -56 -8 -70 -10 -14 -2 -45 -7 -70 -10 -25 -3 -108 -14 -185
-25 -77 -11 -158 -23 -180 -26 -22 -3 -67 -9 -100 -14 -33 -5 -85 -12 -115
-15 -30 -3 -62 -8 -70 -10 -8 -2 -40 -7 -70 -10 -30 -3 -62 -8 -70 -10 -8 -2
-37 -6 -65 -10 -27 -3 -77 -10 -110 -15 -33 -5 -85 -12 -115 -15 -30 -3 -81
-11 -114 -16 -32 -6 -64 -8 -72 -5 -7 3 -16 1 -19 -4 -4 -6 -20 -10 -36 -10
-17 0 -28 4 -25 8 9 15 19 164 19 277 0 126 -19 214 -68 322 -111 241 -334
419 -610 483 -85 20 -250 20 -345 0z m-1994 -5724 c20 -20 18 -23 -16 -23 -34
0 -35 2 -17 22 15 18 16 18 33 1z m4498 -62 c9 -24 7 -28 -9 -14 -17 14 -20
30 -6 30 5 0 12 -7 15 -16z m-534 -77 c0 -7 -9 -13 -20 -14 -16 -1 -18 1 -8
17 13 20 28 18 28 -3z"/>
<path d="M2158 1113 c7 -3 16 -2 19 1 4 3 -2 6 -13 5 -11 0 -14 -3 -6 -6z"/>
<path d="M2207 1106 c-4 -10 -13 -13 -24 -10 -17 5 -17 5 0 -6 9 -6 15 -15 12
-21 -4 -5 -1 -9 5 -9 7 0 10 6 7 14 -3 7 0 19 6 25 6 6 8 13 5 16 -3 3 -8 -1
-11 -9z"/>
<path d="M2270 1111 c0 -6 8 -14 17 -20 10 -5 15 -13 10 -17 -4 -4 -15 0 -24
8 -27 23 -47 33 -39 20 4 -7 2 -12 -3 -12 -6 0 -11 -5 -11 -11 0 -8 5 -8 15 1
20 17 44 -3 39 -33 -3 -13 -1 -16 3 -7 3 8 13 20 22 27 14 10 14 14 -6 33 -13
11 -23 16 -23 11z"/>
<path d="M2130 1102 c0 -7 5 -12 11 -12 5 0 8 -4 5 -8 -2 -4 -1 -14 4 -21 9
-15 30 -6 30 12 0 7 -4 6 -10 -3 -9 -14 -11 -13 -14 10 -2 15 -26 36 -26 22z"/>
<path d="M2408 1083 c6 -3 10 -9 6 -14 -8 -14 6 -11 21 5 12 11 10 13 -13 13
-15 0 -21 -2 -14 -4z"/>
<path d="M2460 1080 c0 -5 5 -10 10 -10 6 0 10 5 10 10 0 6 -4 10 -10 10 -5 0
-10 -4 -10 -10z"/>
<path d="M1932 1060 c-19 -23 -25 -60 -10 -60 6 0 8 6 5 14 -3 8 3 26 14 40
24 31 17 35 -9 6z"/>
<path d="M2510 1070 c0 -5 5 -10 11 -10 5 0 7 5 4 10 -3 6 -8 10 -11 10 -2 0
-4 -4 -4 -10z"/>
<path d="M2540 1071 c0 -6 4 -13 10 -16 6 -3 7 1 4 9 -7 18 -14 21 -14 7z"/>
<path d="M2224 1055 c-10 -8 -14 -15 -9 -15 6 -1 1 -6 -10 -11 l-20 -9 20 3
c11 2 19 9 18 15 -3 11 10 16 30 13 4 0 7 4 7 9 0 14 -13 12 -36 -5z"/>
<path d="M2447 1049 c4 -13 8 -18 11 -10 2 7 -1 18 -6 23 -8 8 -9 4 -5 -13z"/>
<path d="M1840 1050 c-9 -6 -10 -10 -3 -10 6 0 15 5 18 10 8 12 4 12 -15 0z"/>
<path d="M1890 1049 c0 -5 5 -7 10 -4 6 3 10 8 10 11 0 2 -4 4 -10 4 -5 0 -10
-5 -10 -11z"/>
<path d="M2390 1051 c0 -5 7 -11 15 -15 8 -3 15 -1 15 3 0 5 -7 11 -15 15 -8
3 -15 1 -15 -3z"/>
<path d="M2485 1050 c11 -5 16 -9 10 -9 -5 -1 -3 -6 5 -11 25 -16 31 -11 13
10 -10 11 -24 20 -33 19 -10 0 -9 -3 5 -9z"/>
<path d="M2567 1047 c-3 -8 4 -13 22 -14 14 0 18 1 8 4 -9 2 -15 9 -12 14 4 5
2 9 -3 9 -6 0 -12 -6 -15 -13z"/>
<path d="M2612 1049 c10 -5 15 -17 12 -27 -5 -14 -4 -14 4 -2 12 16 -2 40 -22
40 -6 0 -3 -5 6 -11z"/>
<path d="M2640 1056 c0 -3 12 -17 27 -31 29 -26 25 -32 -9 -14 -15 8 -19 8
-14 0 4 -6 3 -11 -3 -11 -5 0 -26 -17 -45 -37 -40 -43 -49 -32 -11 13 14 16
25 33 25 38 0 5 -10 -3 -21 -18 -12 -15 -24 -25 -27 -22 -3 3 3 15 13 26 10
11 13 20 8 20 -6 0 -14 -8 -17 -17 -5 -12 -9 -14 -18 -5 -7 7 -16 12 -20 12
-4 0 1 -9 12 -20 11 -11 20 -25 20 -32 0 -7 -20 9 -45 35 -25 27 -45 44 -45
38 0 -5 16 -24 36 -43 48 -45 57 -63 44 -88 -7 -13 -7 -26 -2 -37 9 -14 10
-14 16 5 4 12 12 22 17 22 5 0 9 5 9 11 0 8 -5 8 -15 -1 -10 -8 -15 -9 -15 -2
0 16 86 102 101 102 7 0 -4 -16 -24 -37 -42 -41 -43 -45 -22 -63 15 -13 12
-30 -6 -30 -6 0 -7 4 -4 10 4 6 -1 7 -11 3 -11 -4 -13 -8 -6 -11 7 -2 9 -9 5
-15 -4 -7 5 -4 21 6 l28 19 -7 -24 c-5 -18 -4 -20 4 -8 14 20 14 23 -9 48
l-21 22 25 27 c14 15 28 24 32 20 3 -3 -1 -13 -10 -22 -9 -9 -16 -19 -16 -23
0 -12 40 -72 47 -72 12 1 43 26 43 36 0 4 -5 3 -12 -4 -9 -9 -15 -9 -27 1 -14
11 -14 10 -2 -5 8 -11 9 -18 3 -18 -6 0 -18 14 -26 32 -15 28 -15 34 -1 47 13
13 18 12 48 -17 18 -18 37 -32 41 -32 5 0 -13 20 -40 44 -27 25 -45 48 -42 52
4 3 26 -12 49 -35 23 -22 46 -41 50 -41 5 0 -13 20 -39 45 -26 25 -41 45 -33
45 7 0 33 -20 57 -45 24 -25 44 -44 44 -41 0 3 11 -6 25 -19 13 -14 30 -25 37
-24 7 0 3 5 -9 11 -12 6 -24 17 -27 24 -6 16 10 19 17 4 3 -6 4 -5 3 2 -1 7
-13 14 -26 14 -12 1 -38 18 -57 38 -19 20 -38 36 -43 36 -5 0 -25 14 -45 31
-19 17 -35 29 -35 25z"/>
<path d="M1819 1031 c26 -24 41 -27 41 -9 0 6 -3 8 -7 5 -3 -4 -18 0 -32 9
l-26 15 24 -20z"/>
<path d="M1875 1023 c2 -18 -1 -33 -6 -33 -5 0 -9 -5 -9 -11 0 -5 4 -8 9 -4 5
3 12 -3 15 -12 2 -10 3 -3 1 15 -2 17 1 32 6 32 5 0 9 5 9 11 0 5 -4 8 -9 4
-5 -3 -12 3 -15 12 -2 10 -3 3 -1 -14z"/>
<path d="M1980 1032 c-13 -14 -12 -15 3 -9 17 6 43 -24 30 -37 -3 -3 -1 -6 5
-6 16 0 15 10 -6 41 -15 24 -18 25 -32 11z"/>
<path d="M2287 1031 c-4 -17 -3 -21 5 -13 5 5 8 16 6 23 -3 8 -7 3 -11 -10z"/>
<path d="M2431 1037 c-1 -10 6 -20 15 -24 13 -5 6 -16 -36 -55 -29 -27 -50
-51 -46 -55 3 -3 6 0 6 7 0 7 3 11 6 7 4 -3 24 13 44 36 l38 42 39 -38 38 -38
-25 -20 c-20 -15 -21 -18 -5 -12 20 6 35 21 35 35 0 3 -22 29 -49 56 -26 27
-51 55 -54 63 -4 10 -6 9 -6 -4z"/>
<path d="M2537 1030 c10 -11 19 -20 21 -20 1 0 -2 9 -8 20 -6 11 -15 20 -20
20 -6 0 -2 -9 7 -20z"/>
<path d="M2690 1043 c0 -16 25 -23 41 -11 11 8 11 9 -2 5 -9 -3 -22 0 -28 6
-8 8 -11 8 -11 0z"/>
<path d="M1737 1026 c-22 -23 -22 -28 8 -62 14 -16 25 -33 25 -38 0 -5 3 -6 6
-3 4 4 -6 23 -21 43 -26 34 -27 37 -10 52 17 16 17 16 12 -1 -7 -19 18 -67 35
-67 5 0 0 10 -12 22 -22 24 -28 47 -7 30 7 -6 22 -9 32 -8 12 2 25 -5 32 -18
l12 -21 -2 23 c-1 20 -4 23 -23 22 -3 -1 -14 9 -25 22 l-20 23 11 -22 c14 -29
-3 -30 -22 -2 -13 20 -15 21 -31 5z"/>
<path d="M1695 1020 c-3 -5 -1 -10 4 -10 6 0 11 5 11 10 0 6 -2 10 -4 10 -3 0
-8 -4 -11 -10z"/>
<path d="M1940 1019 c0 -5 5 -7 10 -4 6 3 10 8 10 11 0 2 -4 4 -10 4 -5 0 -10
-5 -10 -11z"/>
<path d="M2394 1021 c4 -6 3 -11 -2 -11 -5 0 -24 -14 -41 -32 -26 -26 -31 -29
-37 -15 -3 10 -10 17 -16 17 -5 0 -7 -4 -3 -9 3 -5 0 -11 -7 -14 -7 -2 -5 -3
5 -1 10 1 20 -3 23 -10 3 -8 19 2 45 26 22 21 45 38 51 38 7 0 -9 -21 -35 -46
-46 -45 -57 -64 -36 -64 5 0 8 4 5 8 -3 5 15 27 39 50 25 23 45 44 45 46 0 3
-10 10 -21 17 -15 8 -19 8 -15 0z"/>
<path d="M2035 1010 c3 -5 8 -10 11 -10 2 0 4 5 4 10 0 6 -5 10 -11 10 -5 0
-7 -4 -4 -10z"/>
<path d="M2233 1007 c5 -14 -3 -29 -27 -53 -19 -19 -31 -34 -27 -34 5 0 21
-11 37 -25 15 -13 30 -22 32 -20 3 3 -6 13 -19 24 -13 11 -19 20 -13 21 5 0
15 -5 22 -12 9 -9 12 -9 12 0 0 7 -5 12 -11 12 -5 0 -7 5 -4 10 4 6 11 8 16 5
5 -4 9 -1 9 4 0 15 -11 13 -34 -4 -32 -24 -43 -17 -16 9 14 13 28 22 32 20 9
-6 2 45 -7 54 -5 4 -5 -1 -2 -11z"/>
<path d="M2255 1010 c3 -5 8 -10 11 -10 2 0 4 5 4 10 0 6 -5 10 -11 10 -5 0
-7 -4 -4 -10z"/>
<path d="M2735 1010 c3 -5 8 -10 11 -10 2 0 4 5 4 10 0 6 -5 10 -11 10 -5 0
-7 -4 -4 -10z"/>
<path d="M2828 1002 c9 -10 19 -14 21 -9 2 5 -3 13 -10 18 -24 15 -30 10 -11
-9z"/>
<path d="M2870 1010 c-13 -8 -12 -10 3 -10 9 0 17 5 17 10 0 12 -1 12 -20 0z"/>
<path d="M1630 1005 c0 -3 17 -22 39 -43 21 -20 36 -42 34 -49 -2 -6 1 -14 6
-18 7 -4 8 0 4 11 -5 13 -3 15 8 9 14 -8 -13 24 -59 71 -23 24 -32 29 -32 19z"/>
<path d="M1960 1002 c0 -4 9 -8 20 -9 11 -1 20 2 20 5 0 4 -9 8 -20 9 -11 1
-20 -2 -20 -5z"/>
<path d="M2060 1003 c0 -7 5 -13 12 -13 6 0 9 -3 5 -6 -3 -4 1 -13 9 -21 25
-26 25 -9 -1 22 -13 17 -24 24 -25 18z"/>
<path d="M2141 968 c-40 -41 -43 -42 -56 -24 -8 11 -15 15 -15 8 0 -6 12 -19
28 -29 15 -10 36 -26 46 -35 11 -10 24 -18 29 -18 5 0 -2 10 -17 21 -15 12
-25 24 -22 27 3 3 15 -3 26 -13 11 -10 20 -13 20 -8 0 6 -8 14 -17 18 -15 5
-12 11 21 40 22 19 36 39 33 46 -3 9 -6 7 -6 -5 -1 -11 -3 -17 -6 -14 -3 3
-21 -10 -39 -28 -19 -19 -40 -34 -47 -34 -7 0 8 20 34 45 27 25 44 45 39 45
-5 0 -28 -19 -51 -42z"/>
<path d="M2760 1001 c0 -14 37 -51 44 -44 3 3 6 1 6 -5 0 -7 5 -12 11 -12 5 0
8 4 4 9 -3 5 0 11 7 14 7 2 5 3 -6 1 -10 -1 -29 8 -42 21 -13 13 -24 20 -24
16z"/>
<path d="M2903 997 c1 -10 6 -17 12 -17 5 1 13 -7 17 -17 7 -17 8 -17 5 0 -1
10 -6 17 -12 17 -5 -1 -13 7 -17 17 -7 17 -8 17 -5 0z"/>
<path d="M1935 990 c-3 -5 -1 -10 4 -10 6 0 11 5 11 10 0 6 -2 10 -4 10 -3 0
-8 -4 -11 -10z"/>
<path d="M2810 990 c0 -5 5 -10 11 -10 5 0 7 5 4 10 -3 6 -8 10 -11 10 -2 0
-4 -4 -4 -10z"/>
<path d="M1900 979 c0 -5 5 -7 10 -4 6 3 10 8 10 11 0 2 -4 4 -10 4 -5 0 -10
-5 -10 -11z"/>
<path d="M2047 969 c4 -13 8 -18 11 -10 2 7 -1 18 -6 23 -8 8 -9 4 -5 -13z"/>
<path d="M2260 980 c0 -5 5 -10 11 -10 5 0 7 5 4 10 -3 6 -8 10 -11 10 -2 0
-4 -4 -4 -10z"/>
<path d="M2860 978 c0 -4 5 -8 11 -8 5 0 8 -4 5 -8 -3 -5 1 -9 9 -9 8 0 15 4
15 9 0 4 -5 8 -11 8 -5 0 -8 4 -5 8 3 5 -1 9 -9 9 -8 0 -15 -4 -15 -9z"/>
<path d="M1445 970 c-4 -6 -12 -7 -18 -4 -9 5 -9 4 0 -6 9 -10 15 -10 28 4 9
9 12 16 6 16 -5 0 -13 -5 -16 -10z"/>
<path d="M1803 972 c10 -4 18 -12 17 -17 0 -6 7 -11 17 -12 17 -3 17 -2 0 5
-10 4 -18 12 -17 17 0 6 -7 11 -17 12 -17 3 -17 2 0 -5z"/>
<path d="M1970 969 c0 -5 5 -7 10 -4 6 3 10 8 10 11 0 2 -4 4 -10 4 -5 0 -10
-5 -10 -11z"/>
<path d="M6565 970 c-3 -6 1 -7 9 -4 18 7 21 14 7 14 -6 0 -13 -4 -16 -10z"/>
<path d="M1910 960 c-8 -5 -10 -10 -5 -10 6 0 17 5 25 10 8 5 11 10 5 10 -5 0
-17 -5 -25 -10z"/>
<path d="M1953 949 c1 -18 6 -25 14 -22 7 3 13 9 13 15 0 5 -4 7 -9 3 -5 -3
-12 3 -14 12 -3 10 -4 6 -4 -8z"/>
<path d="M1999 968 c-1 -2 -3 -13 -4 -25 -2 -15 2 -20 13 -15 9 3 13 1 9 -5
-3 -5 3 -17 14 -27 19 -16 19 -19 5 -41 -14 -21 -14 -24 0 -29 9 -3 12 -2 9 5
-4 5 1 22 11 37 9 15 14 24 10 20 -9 -8 -45 24 -39 35 2 4 -3 10 -11 13 -9 3
-16 10 -16 16 0 5 5 6 10 3 6 -3 10 -1 10 4 0 9 -17 16 -21 9z"/>
<path d="M2031 957 c-1 -10 6 -20 14 -23 8 -4 13 -9 10 -14 -2 -4 7 -12 20
-18 15 -7 25 -8 25 -2 0 6 -4 10 -10 10 -12 0 -45 32 -53 51 -4 10 -6 9 -6 -4z"/>
<path d="M2462 950 c7 -11 17 -20 22 -20 4 0 3 -7 -4 -15 -9 -10 -9 -15 -1
-15 6 0 11 5 11 11 0 5 5 7 10 4 18 -11 10 4 -15 30 -31 30 -40 32 -23 5z"/>
<path d="M3150 959 c0 -6 -7 -8 -17 -5 -15 6 -15 4 2 -14 10 -11 13 -20 7 -20
-6 0 -13 4 -17 10 -3 5 -13 6 -21 3 -15 -5 -15 -7 -1 -15 10 -5 14 -16 11 -26
-4 -11 -3 -13 3 -5 14 19 83 63 83 53 0 -5 -15 -20 -33 -32 l-32 -23 17 -35
c10 -19 18 -29 18 -22 0 7 -5 23 -11 34 -9 17 -7 24 17 43 24 19 30 20 42 9 7
-8 17 -14 22 -14 5 0 -3 12 -18 27 -26 27 -44 31 -50 12 -7 -19 -23 -8 -17 11
3 11 4 20 1 20 -3 0 -6 -5 -6 -11z"/>
<path d="M6494 962 c3 -5 0 -13 -6 -15 -9 -4 -10 -6 -1 -6 17 -1 25 16 12 25
-7 4 -9 3 -5 -4z"/>
<path d="M6610 965 c0 -7 30 -13 34 -7 3 4 -4 9 -15 9 -10 1 -19 0 -19 -2z"/>
<path d="M6685 960 c-3 -6 1 -7 9 -4 18 7 21 14 7 14 -6 0 -13 -4 -16 -10z"/>
<path d="M1366 947 c3 -9 10 -17 16 -17 5 0 6 -4 3 -10 -3 -5 -1 -10 4 -10 17
0 13 15 -9 35 -18 17 -20 17 -14 2z"/>
<path d="M1408 941 c12 -10 22 -23 22 -29 0 -6 13 1 29 16 31 30 33 46 1 17
-19 -17 -21 -17 -38 -2 -10 10 -22 17 -27 17 -4 0 2 -8 13 -19z"/>
<path d="M1860 951 c0 -6 4 -13 10 -16 6 -3 7 1 4 9 -7 18 -14 21 -14 7z"/>
<path d="M2910 950 c0 -5 9 -14 20 -20 11 -6 20 -9 20 -8 0 2 -9 11 -20 21
-11 9 -20 13 -20 7z"/>
<path d="M6588 953 c6 -2 10 -9 7 -14 -4 -5 1 -6 9 -3 11 4 13 0 9 -14 -5 -22
12 -38 23 -21 5 8 3 9 -6 4 -10 -6 -12 -3 -7 14 5 20 -17 42 -40 40 -4 0 -2
-3 5 -6z"/>
<path d="M1286 942 c-2 -4 -1 -14 4 -22 7 -11 9 -9 7 8 -1 24 -3 26 -11 14z"/>
<path d="M1313 924 c0 -17 2 -22 7 -13 5 6 6 18 3 26 -8 19 -10 16 -10 -13z"/>
<path d="M1337 939 c9 -9 8 -18 -4 -38 l-15 -26 20 23 c21 23 20 52 -1 52 -8
0 -8 -3 0 -11z"/>
<path d="M1925 940 c-3 -5 -1 -10 4 -10 6 0 11 5 11 10 0 6 -2 10 -4 10 -3 0
-8 -4 -11 -10z"/>
<path d="M2418 929 c-10 -10 -14 -19 -9 -19 6 0 13 5 16 10 9 15 25 12 25 -6
0 -8 -4 -13 -8 -10 -9 5 -52 -46 -52 -61 0 -4 7 3 16 16 13 18 18 20 26 10 6
-10 7 -6 3 10 -5 15 -3 21 3 17 15 -9 24 10 17 34 -8 24 -15 24 -37 -1z"/>
<path d="M2845 940 c3 -5 8 -10 11 -10 2 0 4 5 4 10 0 6 -5 10 -11 10 -5 0 -7
-4 -4 -10z"/>
<path d="M6313 928 c0 -16 4 -28 9 -28 5 0 7 4 3 9 -3 6 3 15 12 21 16 10 16
11 1 6 -9 -3 -19 0 -21 7 -2 7 -4 0 -4 -15z"/>
<path d="M6543 935 c-3 -9 -3 -19 1 -22 3 -4 6 1 6 11 0 9 5 14 10 11 6 -4 8
-11 5 -16 -4 -5 -1 -9 4 -9 13 0 13 3 5 24 -8 20 -23 21 -31 1z"/>
<path d="M6645 940 c-3 -6 1 -7 9 -4 18 7 21 14 7 14 -6 0 -13 -4 -16 -10z"/>
<path d="M1249 923 c-13 -16 -12 -17 4 -4 9 7 17 15 17 17 0 8 -8 3 -21 -13z"/>
<path d="M1793 918 c-2 -18 0 -20 7 -8 12 18 13 30 2 30 -4 0 -9 -10 -9 -22z"/>
<path d="M1890 925 c0 -8 2 -15 4 -15 2 0 6 7 10 15 3 8 1 15 -4 15 -6 0 -10
-7 -10 -15z"/>
<path d="M2274 928 c1 -7 12 -13 23 -14 14 -1 20 3 16 12 -3 8 -9 14 -15 14
-5 0 -6 -4 -3 -10 3 -5 2 -10 -4 -10 -5 0 -12 5 -14 10 -3 6 -4 5 -3 -2z"/>
<path d="M2870 931 c0 -6 5 -13 12 -17 7 -4 8 -3 4 4 -4 7 -3 12 2 12 17 0 22
-13 11 -27 -9 -10 -15 -10 -25 -2 -9 7 -14 8 -14 1 0 -19 28 -21 48 -3 20 17
20 17 1 29 -23 14 -39 15 -39 3z"/>
<path d="M3250 932 c0 -5 9 -18 20 -30 16 -17 18 -26 10 -41 -15 -30 -11 -39
5 -11 19 33 18 37 -4 57 -11 9 -18 20 -15 25 3 4 0 8 -5 8 -6 0 -11 -4 -11 -8z"/>
<path d="M3326 926 c3 -8 13 -17 21 -20 25 -10 23 -3 -3 17 -18 13 -22 14 -18
3z"/>
<path d="M6286 927 c3 -10 9 -15 12 -12 3 3 0 11 -7 18 -10 9 -11 8 -5 -6z"/>
<path d="M6513 920 c1 -11 5 -20 9 -20 3 0 6 9 5 20 -1 11 -5 20 -9 20 -3 0
-6 -9 -5 -20z"/>
<path d="M1224 908 c18 -31 20 -48 6 -48 -5 0 -9 5 -7 11 1 6 -5 14 -13 16
-12 4 -12 3 -2 -5 8 -5 13 -13 12 -18 -3 -19 22 -15 27 5 3 12 9 21 13 21 4 0
11 8 14 17 6 16 5 16 -12 0 -18 -17 -20 -16 -36 5 -17 22 -17 22 -2 -4z"/>
<path d="M1555 920 c3 -5 11 -10 16 -10 6 0 7 5 4 10 -3 6 -11 10 -16 10 -6 0
-7 -4 -4 -10z"/>
<path d="M1629 923 c-1 -5 -1 -12 0 -17 1 -4 -3 -14 -10 -22 -12 -14 -3 -38
11 -29 5 3 10 0 13 -7 2 -7 3 -5 1 5 -1 10 4 21 12 24 11 4 9 9 -9 25 -17 16
-18 19 -4 14 11 -3 16 -2 12 4 -7 12 -24 13 -26 3z m11 -48 c-7 -9 -15 -13
-17 -11 -7 7 7 26 19 26 6 0 6 -6 -2 -15z"/>
<path d="M1824 923 c3 -3 -4 -14 -16 -24 -11 -11 -16 -19 -11 -19 6 0 16 7 23
16 12 13 16 12 35 -12 17 -21 24 -24 30 -14 5 8 4 11 -2 7 -6 -4 -18 5 -28 19
-16 26 -16 26 7 19 12 -4 20 -4 16 0 -4 4 -19 9 -34 11 -14 1 -23 0 -20 -3z"/>
<path d="M2670 922 c0 -4 9 -13 20 -20 23 -14 26 -7 6 14 -16 15 -26 18 -26 6z"/>
<path d="M3300 920 c0 -5 6 -15 14 -23 11 -11 12 -17 3 -27 -9 -10 -9 -11 1
-6 6 4 12 2 12 -3 0 -6 5 -11 11 -11 8 0 8 5 -1 15 -11 13 -9 15 11 11 13 -3
26 -5 29 -5 3 -1 -2 -6 -10 -11 -8 -5 -10 -10 -4 -10 6 0 18 8 25 17 10 11 10
14 2 9 -8 -4 -13 -2 -13 4 0 7 -7 9 -16 6 -9 -3 -25 4 -40 19 -13 13 -24 20
-24 15z"/>
<path d="M3380 923 c0 -5 4 -14 9 -22 10 -15 31 -7 31 12 0 7 -4 6 -10 -3 -9
-13 -14 -7 -11 13 0 4 -3 7 -9 7 -5 0 -10 -3 -10 -7z"/>
<path d="M6185 920 c-2 -3 5 -7 16 -7 10 -1 19 2 19 6 0 9 -29 10 -35 1z"/>
<path d="M6255 920 c3 -5 11 -10 16 -10 6 0 7 5 4 10 -3 6 -11 10 -16 10 -6 0
-7 -4 -4 -10z"/>
<path d="M6460 923 c0 -5 4 -14 9 -22 11 -17 31 -6 30 17 -1 15 -2 15 -6 -1
-2 -9 -9 -15 -14 -11 -5 3 -7 10 -4 15 4 5 1 9 -4 9 -6 0 -11 -3 -11 -7z"/>
<path d="M6656 922 c-2 -4 -1 -14 4 -22 7 -11 9 -9 7 8 -1 24 -3 26 -11 14z"/>
<path d="M1124 906 c-3 -8 -12 -12 -20 -9 -8 3 -14 3 -14 0 0 -16 31 -13 40 3
6 11 8 20 5 20 -3 0 -8 -6 -11 -14z"/>
<path d="M1913 906 c3 -7 -1 -23 -9 -35 -8 -11 -11 -21 -6 -21 11 0 25 26 27
53 1 9 -2 17 -7 17 -6 0 -8 -6 -5 -14z"/>
<path d="M1970 918 c0 -2 9 -11 20 -21 11 -9 20 -13 20 -7 0 5 -9 14 -20 20
-11 6 -20 9 -20 8z"/>
<path d="M3435 910 c-3 -5 -1 -10 4 -10 6 0 11 5 11 10 0 6 -2 10 -4 10 -3 0
-8 -4 -11 -10z"/>
<path d="M6155 910 c-3 -5 -1 -10 4 -10 6 0 11 5 11 10 0 6 -2 10 -4 10 -3 0
-8 -4 -11 -10z"/>
<path d="M6340 913 c0 -6 4 -14 8 -17 13 -8 7 -47 -9 -56 -10 -7 -8 -9 8 -7
12 0 20 3 18 5 -2 3 6 13 18 24 l22 19 -22 -11 c-16 -7 -23 -8 -23 0 0 6 6 13
14 16 8 3 17 13 21 22 5 14 3 13 -14 -2 -18 -17 -20 -17 -30 1 -6 10 -11 13
-11 6z"/>
<path d="M1141 889 c-12 -21 -6 -43 10 -34 5 4 9 -3 9 -14 0 -11 4 -22 9 -25
6 -4 6 5 2 21 -5 16 -13 27 -20 26 -14 -4 -15 14 -1 22 6 3 17 -1 26 -9 19
-19 25 -20 18 -3 -2 7 -13 17 -22 24 -15 9 -21 7 -31 -8z"/>
<path d="M1370 893 c13 -27 27 -36 35 -23 4 6 2 9 -4 8 -5 -2 -17 6 -26 17
-16 20 -16 20 -5 -2z"/>
<path d="M1540 900 c0 -6 7 -10 15 -10 8 0 15 2 15 4 0 2 -7 6 -15 10 -8 3
-15 1 -15 -4z"/>
<path d="M1583 896 c-4 -7 -15 -16 -23 -19 -12 -4 -11 -6 3 -6 10 -1 20 6 23
14 4 8 10 12 15 9 5 -3 9 0 9 5 0 15 -18 14 -27 -3z"/>
<path d="M1760 900 c-13 -8 -12 -10 3 -10 9 0 17 5 17 10 0 12 -1 12 -20 0z"/>
<path d="M1950 903 c5 -2 10 -9 10 -14 0 -6 -5 -7 -12 -3 -7 4 -8 3 -4 -4 4
-7 2 -12 -3 -12 -6 0 -11 -5 -11 -11 0 -8 5 -8 15 1 18 15 20 0 3 -20 -11 -12
-10 -12 4 -1 19 14 19 63 0 67 -7 1 -8 0 -2 -3z"/>
<path d="M2260 900 c0 -6 7 -10 15 -10 8 0 15 2 15 4 0 2 -7 6 -15 10 -8 3
-15 1 -15 -4z"/>
<path d="M3078 903 c-1 -7 -4 -35 -7 -71 -1 -7 -6 -10 -13 -6 -7 5 -8 3 -3 -6
11 -18 36 16 27 38 -5 15 -4 15 11 3 9 -7 17 -9 17 -3 0 5 -7 12 -15 16 -8 3
-15 10 -15 16 0 6 5 8 10 5 6 -3 10 -1 10 4 0 12 -19 15 -22 4z"/>
<path d="M3499 888 c-5 -10 -16 -18 -24 -18 -7 0 -17 -4 -20 -10 -12 -20 16
-10 40 14 13 13 26 22 28 19 3 -2 7 0 11 5 3 5 -2 9 -10 9 -8 0 -19 -9 -25
-19z"/>
<path d="M6217 890 c-10 -12 -23 -18 -29 -14 -8 5 -5 10 8 16 19 8 19 8 0 5
-28 -3 -30 -20 -4 -36 13 -7 20 -10 16 -6 -3 3 2 15 13 26 19 19 19 19 38 0
11 -11 16 -23 13 -26 -4 -4 3 -1 16 6 26 16 24 33 -4 36 -19 3 -19 3 0 -5 13
-6 16 -11 8 -16 -6 -4 -19 2 -29 14 -10 11 -20 20 -23 20 -3 0 -13 -9 -23 -20z"/>
<path d="M6593 884 c0 -17 2 -22 7 -13 5 6 6 18 3 26 -8 19 -10 16 -10 -13z"/>
<path d="M6686 898 c3 -5 10 -6 15 -3 13 9 11 12 -6 12 -8 0 -12 -4 -9 -9z"/>
<path d="M1290 893 c5 -2 8 -9 5 -13 -7 -11 30 -32 39 -23 3 3 6 -1 6 -10 0
-9 5 -17 10 -17 7 0 7 6 0 20 -6 11 -14 19 -18 19 -19 -3 -32 2 -29 12 1 6 -4
13 -11 15 -7 1 -8 0 -2 -3z"/>
<path d="M1398 893 c7 -3 16 -2 19 1 4 3 -2 6 -13 5 -11 0 -14 -3 -6 -6z"/>
<path d="M1725 881 c-4 -13 -11 -18 -22 -14 -11 4 -14 2 -9 -5 4 -7 11 -12 16
-12 11 0 34 40 27 47 -3 2 -8 -5 -12 -16z"/>
<path d="M1878 893 c7 -3 16 -2 19 1 4 3 -2 6 -13 5 -11 0 -14 -3 -6 -6z"/>
<path d="M2113 874 c0 -17 2 -22 7 -13 5 6 6 18 3 26 -8 19 -10 16 -10 -13z"/>
<path d="M2193 874 c0 -17 2 -22 7 -13 5 6 6 18 3 26 -8 19 -10 16 -10 -13z"/>
<path d="M2300 892 c0 -7 -6 -12 -14 -12 -7 0 -19 -7 -26 -15 -9 -10 -9 -15
-1 -15 6 0 11 5 11 10 0 6 6 10 14 10 17 0 31 18 22 27 -3 4 -6 1 -6 -5z"/>
<path d="M2388 893 c7 -3 16 -2 19 1 4 3 -2 6 -13 5 -11 0 -14 -3 -6 -6z"/>
<path d="M2774 891 c3 -4 -6 -13 -20 -20 -15 -7 -22 -16 -18 -23 5 -7 2 -9 -8
-6 -8 4 -21 2 -29 -3 -9 -5 -4 -7 16 -5 17 1 29 8 28 14 -4 17 12 15 27 -3 7
-8 17 -15 23 -15 6 0 1 7 -12 16 -21 15 -21 18 -7 26 18 10 22 28 5 28 -5 0
-8 -4 -5 -9z"/>
<path d="M2918 888 c-3 -7 3 -26 13 -43 11 -16 19 -25 19 -19 0 5 -6 19 -14
29 -8 11 -12 25 -9 32 3 7 3 13 0 13 -3 0 -7 -6 -9 -12z"/>
<path d="M3190 890 c0 -6 4 -9 9 -6 5 3 20 -3 34 -14 16 -13 28 -16 32 -10 9
14 -3 29 -23 28 -9 0 -25 3 -34 7 -11 4 -18 3 -18 -5z m70 -20 c0 -5 -2 -10
-4 -10 -3 0 -8 5 -11 10 -3 6 -1 10 4 10 6 0 11 -4 11 -10z"/>
<path d="M3455 890 c-4 -6 -11 -7 -17 -4 -11 7 -29 -16 -22 -28 3 -4 11 -8 17
-8 7 0 6 4 -3 10 -8 5 -12 10 -7 11 13 3 22 6 47 17 17 7 20 11 8 11 -9 1 -20
-4 -23 -9z"/>
<path d="M3545 886 c-15 -11 -17 -17 -7 -28 6 -8 9 -18 5 -21 -3 -4 -1 -7 6
-7 7 0 11 6 8 14 -3 7 0 19 6 25 6 6 7 11 2 11 -6 0 -3 5 5 10 8 5 10 10 4 10
-5 0 -19 -6 -29 -14z m15 -10 c0 -3 -4 -8 -10 -11 -5 -3 -10 -1 -10 4 0 6 5
11 10 11 6 0 10 -2 10 -4z"/>
<path d="M6410 880 c6 -11 18 -19 28 -19 16 1 15 2 -1 6 -9 2 -15 8 -12 13 3
4 -2 11 -10 14 -13 4 -14 2 -5 -14z"/>
<path d="M6536 893 c-4 -4 -15 -8 -23 -8 -9 0 -17 -6 -19 -13 -1 -7 0 -8 3 -2
2 5 9 10 14 10 6 0 7 -5 3 -12 -4 -7 -3 -8 4 -4 7 4 12 2 12 -3 0 -6 5 -11 11
-11 8 0 8 5 -1 15 -10 12 -9 16 5 21 10 4 21 1 27 -7 8 -12 9 -11 5 1 -4 17
-29 25 -41 13z"/>
<path d="M991 874 c0 -11 3 -14 6 -6 3 7 2 16 -1 19 -3 4 -6 -2 -5 -13z"/>
<path d="M1029 881 c8 -5 21 -6 30 -3 14 5 14 3 2 -11 -9 -11 -10 -17 -2 -17
6 0 11 5 11 10 0 6 8 10 17 10 29 0 7 10 -33 15 -26 3 -34 2 -25 -4z"/>
<path d="M1350 885 c0 -5 5 -17 10 -25 5 -8 10 -10 10 -5 0 6 -5 17 -10 25 -5
8 -10 11 -10 5z"/>
<path d="M1434 883 c3 -6 1 -13 -6 -15 -6 -2 -13 -15 -15 -29 -2 -18 -1 -20 6
-9 5 8 8 17 5 21 -7 12 20 16 37 6 9 -6 24 -7 34 -3 17 6 17 8 2 23 -12 12
-19 14 -30 5 -10 -9 -17 -8 -27 1 -9 8 -11 8 -6 0z m61 -13 c3 -5 -3 -10 -15
-10 -12 0 -18 5 -15 10 3 6 10 10 15 10 5 0 12 -4 15 -10z"/>
<path d="M1830 885 c0 -5 5 -17 10 -25 5 -8 10 -10 10 -5 0 6 -5 17 -10 25 -5
8 -10 11 -10 5z"/>
<path d="M1980 881 c0 -6 4 -13 10 -16 6 -3 7 1 4 9 -7 18 -14 21 -14 7z"/>
<path d="M2016 874 c-4 -9 -4 -19 -1 -22 2 -3 7 3 11 12 4 9 4 19 1 22 -2 3
-7 -3 -11 -12z"/>
<path d="M2316 875 c-3 -8 -3 -22 0 -30 5 -12 8 -12 20 0 20 19 18 30 -2 14
-15 -12 -16 -11 -10 9 8 24 1 31 -8 7z"/>
<path d="M2355 880 c27 -12 43 -12 25 0 -8 5 -22 9 -30 9 -10 0 -8 -3 5 -9z"/>
<path d="M2796 875 c-9 -26 -7 -32 5 -12 6 10 9 21 6 23 -2 3 -7 -2 -11 -11z"/>
<path d="M3035 880 c-19 -8 -19 -9 3 -9 12 -1 22 4 22 9 0 6 -1 10 -2 9 -2 0
-12 -4 -23 -9z"/>
<path d="M3171 879 c0 -9 7 -23 16 -30 11 -10 14 -10 9 -1 -4 7 -2 12 6 12 8
0 14 -9 15 -20 1 -13 -2 -18 -9 -14 -7 5 -8 2 -3 -6 6 -10 11 -9 21 5 17 23 0
49 -27 42 -11 -3 -20 2 -22 12 -4 15 -5 15 -6 0z"/>
<path d="M3596 882 c2 -3 -4 -11 -14 -18 -19 -15 -5 -19 18 -4 10 6 12 12 4
18 -6 5 -9 7 -8 4z"/>
<path d="M3620 881 c0 -10 29 -36 34 -30 1 2 -6 12 -16 22 -10 9 -18 13 -18 8z"/>
<path d="M5863 883 c4 -3 2 -12 -4 -20 -9 -9 -8 -13 0 -13 6 0 11 5 11 11 0 5
6 7 13 3 8 -5 8 -2 -2 9 -7 9 -16 17 -19 17 -3 0 -2 -3 1 -7z"/>
<path d="M5900 873 c11 -24 30 -31 30 -11 0 6 -3 8 -7 5 -3 -4 -12 1 -20 11
-13 15 -13 15 -3 -5z"/>
<path d="M6005 880 c3 -5 8 -10 11 -10 2 0 4 5 4 10 0 6 -5 10 -11 10 -5 0 -7
-4 -4 -10z"/>
<path d="M6140 879 c0 -5 5 -7 10 -4 6 3 10 8 10 11 0 2 -4 4 -10 4 -5 0 -10
-5 -10 -11z"/>
<path d="M6325 880 c3 -5 8 -10 11 -10 2 0 4 5 4 10 0 6 -5 10 -11 10 -5 0 -7
-4 -4 -10z"/>
<path d="M950 870 c0 -5 5 -10 10 -10 6 0 10 5 10 10 0 6 -4 10 -10 10 -5 0
-10 -4 -10 -10z"/>
<path d="M1270 874 c0 -5 6 -18 13 -29 12 -15 15 -16 22 -4 5 8 4 10 0 6 -5
-4 -15 3 -22 15 -7 13 -12 18 -13 12z"/>
<path d="M1750 874 c0 -5 6 -18 13 -29 12 -15 15 -16 22 -4 5 8 4 10 0 6 -5
-4 -15 3 -22 15 -7 13 -12 18 -13 12z"/>
<path d="M1784 866 c10 -9 22 -13 27 -11 4 3 10 0 12 -5 4 -7 5 -6 3 1 -1 6
-6 11 -11 11 -6 0 -19 4 -30 10 -19 9 -19 9 -1 -6z"/>
<path d="M2075 870 c-3 -6 1 -7 9 -4 18 7 21 14 7 14 -6 0 -13 -4 -16 -10z"/>
<path d="M2954 873 c15 -4 16 -7 5 -15 -11 -8 -10 -9 4 -4 15 5 17 2 12 -17
-5 -19 -5 -20 5 -4 14 22 -3 48 -29 46 -12 -1 -11 -2 3 -6z"/>
<path d="M3673 856 c0 -18 3 -24 9 -18 7 7 7 16 0 28 -8 14 -9 13 -9 -10z"/>
<path d="M5830 869 c0 -5 5 -7 10 -4 6 3 10 8 10 11 0 2 -4 4 -10 4 -5 0 -10
-5 -10 -11z"/>
<path d="M888 863 c-10 -2 -18 -9 -18 -14 0 -6 8 -5 20 1 11 6 20 13 20 15 0
3 -1 4 -2 4 -2 -1 -11 -3 -20 -6z"/>
<path d="M1015 860 c3 -5 11 -10 16 -10 6 0 7 5 4 10 -3 6 -11 10 -16 10 -6 0
-7 -4 -4 -10z"/>
<path d="M1114 846 c3 -16 8 -31 11 -35 3 -3 4 7 1 23 -3 16 -8 31 -11 35 -3
3 -4 -7 -1 -23z"/>
<path d="M1529 864 c6 -3 7 -12 4 -20 -3 -8 -1 -14 5 -14 14 0 8 33 -7 36 -6
1 -7 0 -2 -2z"/>
<path d="M1593 852 c0 -12 5 -22 9 -22 11 0 10 12 -2 30 -7 12 -9 10 -7 -8z"/>
<path d="M2135 859 c-4 -6 -4 -13 -1 -16 3 -4 6 -1 6 5 0 17 28 3 33 -16 4
-15 5 -15 6 0 1 21 -35 43 -44 27z"/>
<path d="M2217 863 c-10 -10 -8 -33 3 -33 5 0 6 7 3 17 -5 12 -3 14 7 8 9 -5
11 -4 6 3 -8 14 -10 14 -19 5z"/>
<path d="M2455 860 c3 -4 16 -7 30 -7 13 0 23 3 20 7 -3 4 -16 8 -30 8 -13 0
-23 -4 -20 -8z"/>
<path d="M2817 863 c-4 -3 -7 -11 -7 -17 0 -6 5 -5 12 2 6 6 9 14 7 17 -3 3
-9 2 -12 -2z"/>
<path d="M2883 863 c-7 -3 -13 -9 -13 -15 0 -6 7 -4 17 3 15 12 16 12 10 -3
-3 -10 -2 -18 3 -18 12 0 13 27 3 33 -5 2 -14 2 -20 0z"/>
<path d="M3510 861 c0 -6 4 -13 10 -16 6 -3 7 1 4 9 -7 18 -14 21 -14 7z"/>
<path d="M5750 860 c-9 -6 -10 -10 -3 -10 6 0 15 5 18 10 8 12 4 12 -15 0z"/>
<path d="M6043 855 c-19 -21 -16 -24 19 -20 24 4 29 2 20 -7 -15 -15 -15 -28
-1 -28 5 0 7 5 4 10 -3 6 1 13 10 16 24 10 -4 25 -30 17 -17 -5 -18 -4 -6 11
16 20 1 21 -16 1z"/>
<path d="M6218 849 c-10 -10 -14 -19 -9 -19 5 0 14 7 22 16 11 14 13 14 21 0
5 -9 13 -16 18 -16 6 0 2 9 -7 20 -21 24 -23 24 -45 -1z"/>
<path d="M6610 863 c0 -1 9 -7 19 -12 14 -8 20 -7 24 2 3 7 -5 12 -19 12 -13
0 -24 -1 -24 -2z"/>
<path d="M2361 844 c0 -11 3 -14 6 -6 3 7 2 16 -1 19 -3 4 -6 -2 -5 -13z"/>
<path d="M2566 843 c-6 -14 -5 -15 5 -6 7 7 10 15 7 18 -3 3 -9 -2 -12 -12z"/>
<path d="M2836 845 c-3 -8 -1 -15 4 -15 6 0 10 7 10 15 0 8 -2 15 -4 15 -2 0
-6 -7 -10 -15z"/>
<path d="M3010 845 c0 -8 4 -15 10 -15 5 0 7 7 4 15 -4 8 -8 15 -10 15 -2 0
-4 -7 -4 -15z"/>
<path d="M3037 849 c7 -7 15 -10 18 -7 3 3 -2 9 -12 12 -14 6 -15 5 -6 -5z"/>
<path d="M3740 845 c0 -8 4 -15 10 -15 5 0 7 7 4 15 -4 8 -8 15 -10 15 -2 0
-4 -7 -4 -15z"/>
<path d="M5990 853 c1 -12 26 -43 35 -43 5 0 0 9 -9 19 -13 15 -14 20 -4 24 8
4 7 6 -4 6 -10 1 -18 -2 -18 -6z"/>
<path d="M6129 843 c-13 -16 -12 -17 4 -4 14 11 21 11 29 3 15 -15 28 -15 28
-1 0 5 -4 7 -10 4 -5 -3 -10 -1 -10 4 0 17 -26 13 -41 -6z"/>
<path d="M6305 852 c-18 -13 -15 -31 5 -42 14 -7 20 -7 20 0 0 5 -7 10 -15 10
-19 0 -8 28 13 33 13 4 13 5 2 6 -8 0 -19 -3 -25 -7z"/>
<path d="M6395 850 c-3 -5 -1 -10 4 -10 6 0 11 5 11 10 0 6 -2 10 -4 10 -3 0
-8 -4 -11 -10z"/>
<path d="M815 839 c-4 -6 -4 -13 -1 -16 3 -4 6 -1 6 6 0 7 5 9 10 6 6 -3 10
-1 10 4 0 14 -17 14 -25 0z"/>
<path d="M900 840 c-9 -6 -10 -10 -3 -10 6 0 15 5 18 10 8 12 4 12 -15 0z"/>
<path d="M946 835 c10 -8 23 -15 28 -15 6 0 1 7 -10 15 -10 8 -23 15 -28 15
-6 0 -1 -7 10 -15z"/>
<path d="M996 833 c-6 -14 -5 -15 5 -6 7 7 10 15 7 18 -3 3 -9 -2 -12 -12z"/>
<path d="M1240 840 c-8 -5 -10 -10 -5 -10 6 0 17 5 25 10 8 5 11 10 5 10 -5 0
-17 -5 -25 -10z"/>
<path d="M1385 840 c3 -5 8 -10 11 -10 2 0 4 5 4 10 0 6 -5 10 -11 10 -5 0 -7
-4 -4 -10z"/>
<path d="M1447 839 c7 -7 15 -10 18 -7 3 3 -2 9 -12 12 -14 6 -15 5 -6 -5z"/>
<path d="M1730 840 c0 -5 5 -10 10 -10 6 0 10 5 10 10 0 6 -4 10 -10 10 -5 0
-10 -4 -10 -10z"/>
<path d="M1860 835 c0 -8 2 -15 4 -15 2 0 6 7 10 15 3 8 1 15 -4 15 -6 0 -10
-7 -10 -15z"/>
<path d="M1980 835 c0 -8 2 -15 4 -15 2 0 6 7 10 15 3 8 1 15 -4 15 -6 0 -10
-7 -10 -15z"/>
<path d="M2068 843 c6 -2 18 -2 25 0 6 3 1 5 -13 5 -14 0 -19 -2 -12 -5z"/>
<path d="M2280 839 c0 -5 5 -7 10 -4 6 3 10 8 10 11 0 2 -4 4 -10 4 -5 0 -10
-5 -10 -11z"/>
<path d="M2429 833 c12 -8 25 -12 28 -9 4 3 1 6 -6 6 -7 0 -10 4 -7 8 2 4 -5
9 -16 9 -21 2 -21 2 1 -14z"/>
<path d="M2532 836 c7 -8 15 -12 17 -11 5 6 -10 25 -20 25 -5 0 -4 -6 3 -14z"/>
<path d="M2605 839 c-4 -6 -5 -12 -2 -15 2 -3 7 2 10 11 7 17 1 20 -8 4z"/>
<path d="M2650 840 c0 -5 5 -10 10 -10 6 0 10 5 10 10 0 6 -4 10 -10 10 -5 0
-10 -4 -10 -10z"/>
<path d="M3116 842 c-2 -4 0 -14 6 -22 8 -12 9 -11 4 4 -5 14 -2 17 9 12 9 -3
13 -2 10 4 -7 12 -22 13 -29 2z"/>
<path d="M3312 830 c7 -10 14 -18 15 -16 6 6 -9 36 -18 36 -5 0 -4 -9 3 -20z"/>
<path d="M3393 843 c4 -3 -1 -12 -11 -20 -15 -13 -15 -13 6 -3 23 11 30 30 10
30 -6 0 -8 -3 -5 -7z"/>
<path d="M3480 840 c0 -5 5 -10 10 -10 6 0 10 5 10 10 0 6 -4 10 -10 10 -5 0
-10 -4 -10 -10z"/>
<path d="M3620 840 c35 -24 54 -31 30 -11 -14 11 -29 21 -35 21 -5 0 -3 -5 5
-10z"/>
<path d="M3711 833 c7 -12 15 -20 18 -17 3 2 -3 12 -13 22 -17 16 -18 16 -5
-5z"/>
<path d="M5654 833 c2 -9 8 -18 15 -19 6 -1 7 0 2 2 -6 3 -7 12 -4 20 3 8 1
14 -5 14 -6 0 -9 -8 -8 -17z"/>
<path d="M5685 840 c-3 -6 1 -7 9 -4 18 7 21 14 7 14 -6 0 -13 -4 -16 -10z"/>
<path d="M5810 840 c0 -5 5 -10 10 -10 6 0 10 5 10 10 0 6 -4 10 -10 10 -5 0
-10 -4 -10 -10z"/>
<path d="M5874 839 c-8 -14 18 -31 30 -19 9 9 0 30 -14 30 -5 0 -12 -5 -16
-11z m26 -9 c0 -5 -2 -10 -4 -10 -3 0 -8 5 -11 10 -3 6 -1 10 4 10 6 0 11 -4
11 -10z"/>
<path d="M5974 836 c5 -14 2 -17 -9 -12 -9 3 -13 2 -10 -4 3 -6 1 -10 -4 -10
-6 0 -11 -4 -11 -8 0 -5 7 -9 15 -9 8 0 13 3 10 5 -3 3 2 10 10 16 11 8 12 15
4 26 -9 12 -10 12 -5 -4z"/>
<path d="M6505 840 c3 -5 11 -10 16 -10 6 0 7 5 4 10 -3 6 -11 10 -16 10 -6 0
-7 -4 -4 -10z"/>
<path d="M6594 841 c3 -5 -1 -12 -10 -15 -8 -3 -13 -10 -10 -15 4 -5 1 -12 -4
-14 -7 -4 -6 -5 1 -3 6 1 10 5 9 10 -1 5 5 13 14 18 18 10 21 28 5 28 -5 0 -8
-4 -5 -9z"/>
<path d="M1795 829 c-4 -6 -5 -12 -2 -15 2 -3 7 2 10 11 7 17 1 20 -8 4z"/>
<path d="M1896 831 c-4 -5 3 -7 14 -4 23 6 26 13 6 13 -8 0 -17 -4 -20 -9z"/>
<path d="M2248 833 c6 -2 9 -10 6 -15 -4 -7 -2 -8 5 -4 13 9 5 26 -12 25 -9 0
-8 -2 1 -6z"/>
<path d="M3250 831 c0 -6 4 -13 10 -16 6 -3 7 1 4 9 -7 18 -14 21 -14 7z"/>
<path d="M3348 833 c7 -3 16 -2 19 1 4 3 -2 6 -13 5 -11 0 -14 -3 -6 -6z"/>
<path d="M3424 825 c-18 -14 -18 -14 4 -8 12 3 22 9 22 14 0 12 -3 11 -26 -6z"/>
<path d="M3590 830 c0 -6 -5 -8 -12 -4 -6 4 -8 3 -5 -4 4 -5 17 -8 29 -4 16 4
19 2 13 -8 -5 -9 -4 -11 3 -6 16 10 15 14 -8 26 -14 8 -20 8 -20 0z"/>
<path d="M3870 836 c0 -3 9 -10 20 -16 11 -6 20 -8 20 -6 0 3 -9 10 -20 16
-11 6 -20 8 -20 6z"/>
<path d="M5765 825 c11 -9 19 -19 18 -23 -1 -4 0 -9 2 -10 2 -2 2 4 1 13 -1
10 -11 22 -22 27 -18 9 -17 8 1 -7z"/>
<path d="M6540 825 c-10 -13 -11 -18 -1 -28 10 -9 11 -8 5 7 -6 15 -4 17 6 11
8 -5 11 -4 6 3 -3 5 0 13 6 15 8 4 9 6 2 6 -6 1 -17 -6 -24 -14z"/>
<path d="M710 820 c8 -5 20 -10 25 -10 6 0 3 5 -5 10 -8 5 -19 10 -25 10 -5 0
-3 -5 5 -10z"/>
<path d="M775 823 c3 -3 -3 -16 -12 -27 -14 -15 -14 -18 -2 -8 9 6 18 9 22 6
3 -3 4 1 3 10 -1 8 -5 18 -9 21 -4 3 -5 2 -2 -2z"/>
<path d="M919 828 c-6 -21 -6 -39 1 -43 5 -3 7 3 6 12 -2 10 2 21 8 25 8 5 7
8 -1 8 -7 0 -13 -1 -14 -2z"/>
<path d="M1095 823 c3 -3 0 -11 -5 -18 -7 -8 -5 -12 4 -12 14 0 16 22 3 32 -4
3 -5 2 -2 -2z"/>
<path d="M1255 819 c-5 -8 -4 -10 3 -5 15 9 16 -6 1 -21 -8 -8 -7 -13 3 -18 7
-5 10 -5 6 0 -4 4 -3 14 4 22 8 10 8 17 1 24 -8 8 -13 7 -18 -2z"/>
<path d="M1313 810 c1 -21 10 -18 13 5 1 8 -2 15 -6 15 -5 0 -8 -9 -7 -20z"/>
<path d="M1485 822 c-14 -10 -17 -32 -5 -32 6 0 10 7 10 16 0 9 5 12 12 8 7
-4 8 -3 4 4 -8 14 -8 14 -21 4z"/>
<path d="M1575 821 c6 -10 2 -12 -16 -6 -27 8 -24 3 8 -14 17 -9 21 -8 19 4
-1 8 -6 18 -11 22 -4 4 -5 2 0 -6z"/>
<path d="M1619 828 c-9 -31 -6 -37 14 -27 32 17 35 22 8 14 -16 -5 -21 -4 -17
4 4 6 5 11 2 11 -3 0 -6 -1 -7 -2z"/>
<path d="M1695 820 c-4 -6 1 -7 11 -3 13 5 15 3 9 -7 -5 -9 -4 -11 4 -6 6 4 9
12 6 17 -8 12 -22 12 -30 -1z"/>
<path d="M1833 815 c0 -8 4 -12 9 -9 4 3 8 9 8 15 0 5 -4 9 -8 9 -5 0 -9 -7
-9 -15z"/>
<path d="M1959 828 c-5 -18 -6 -39 -2 -34 4 3 11 1 18 -4 8 -7 12 -5 12 5 0 7
-5 13 -11 12 -6 -1 -10 4 -8 11 2 10 -6 19 -9 10z"/>
<path d="M2190 820 c0 -5 5 -10 11 -10 5 0 7 5 4 10 -3 6 -8 10 -11 10 -2 0
-4 -4 -4 -10z"/>
<path d="M2295 819 c-4 -6 -5 -12 -2 -15 2 -3 7 2 10 11 7 17 1 20 -8 4z"/>
<path d="M2375 819 c-4 -6 -5 -12 -2 -15 2 -3 7 2 10 11 7 17 1 20 -8 4z"/>
<path d="M2400 826 c0 -2 7 -7 16 -10 8 -3 12 -2 9 4 -6 10 -25 14 -25 6z"/>
<path d="M2515 820 c-3 -5 -1 -10 4 -10 6 0 11 5 11 10 0 6 -2 10 -4 10 -3 0
-8 -4 -11 -10z"/>
<path d="M2750 822 c0 -12 22 -32 35 -32 5 0 2 5 -8 11 -9 6 -15 14 -12 20 4
5 1 9 -4 9 -6 0 -11 -4 -11 -8z"/>
<path d="M2814 822 c3 -5 0 -13 -6 -15 -9 -4 -10 -6 -1 -6 17 -1 25 16 12 25
-7 4 -9 3 -5 -4z"/>
<path d="M2842 800 c-15 -19 -16 -27 -7 -27 8 0 13 3 13 6 -3 19 15 38 33 34
10 -3 19 -3 19 0 0 2 -9 7 -19 10 -13 3 -26 -4 -39 -23z"/>
<path d="M2915 820 c-3 -5 -1 -10 4 -10 6 0 11 5 11 10 0 6 -2 10 -4 10 -3 0
-8 -4 -11 -10z"/>
<path d="M2990 820 c0 -5 5 -10 11 -10 5 0 7 5 4 10 -3 6 -8 10 -11 10 -2 0
-4 -4 -4 -10z"/>
<path d="M3096 816 c6 -15 4 -17 -6 -11 -9 6 -11 4 -5 -4 5 -9 10 -10 18 -2 8
8 7 14 -2 24 -10 10 -11 8 -5 -7z"/>
<path d="M3284 818 c-4 -6 -3 -8 3 -5 10 6 28 -19 25 -34 0 -3 5 -6 13 -6 9 0
7 9 -8 29 -24 32 -23 32 -33 16z"/>
<path d="M3510 820 c0 -5 5 -10 10 -10 6 0 10 5 10 10 0 6 -4 10 -10 10 -5 0
-10 -4 -10 -10z"/>
<path d="M3702 808 c7 -13 12 -26 11 -29 -1 -3 4 -6 12 -6 9 0 7 9 -8 29 -25
34 -32 37 -15 6z"/>
<path d="M3765 819 c-6 -8 -4 -10 5 -4 10 6 11 1 7 -21 -6 -27 -6 -27 5 -6 13
26 -3 55 -17 31z"/>
<path d="M5435 820 c-4 -6 -4 -14 -1 -17 3 -4 6 -1 6 5 0 7 5 12 11 12 5 0 8
-4 4 -9 -3 -5 -1 -12 4 -15 5 -4 8 2 7 11 -3 21 -22 28 -31 13z"/>
<path d="M5592 810 c-18 -29 -15 -38 4 -12 9 13 14 25 12 27 -2 2 -9 -5 -16
-15z"/>
<path d="M5695 820 c-5 -7 2 -9 21 -4 19 5 25 4 20 -5 -4 -6 0 -14 8 -17 9 -3
13 -11 9 -17 -4 -6 -1 -7 7 -2 10 6 10 10 -2 19 -8 6 -15 16 -14 21 1 14 -41
18 -49 5z"/>
<path d="M6135 821 c-3 -5 0 -13 6 -17 8 -5 9 -3 4 6 -6 10 -4 12 9 7 10 -4
15 -3 11 3 -8 13 -22 13 -30 1z"/>
<path d="M6230 820 c0 -5 5 -10 10 -10 6 0 10 5 10 10 0 6 -4 10 -10 10 -5 0
-10 -4 -10 -10z"/>
<path d="M6379 827 c0 -1 -2 -13 -5 -27 -3 -18 -2 -21 5 -10 5 8 8 17 5 21 -2
4 5 7 16 6 13 -1 19 -6 15 -15 -3 -8 0 -10 7 -6 7 5 9 2 5 -9 -4 -11 -2 -14 8
-10 13 4 13 8 0 26 -12 17 -53 35 -56 24z"/>
<path d="M6480 819 c-12 -9 -12 -10 4 -5 14 5 17 2 12 -9 -3 -9 -2 -13 4 -10
6 3 10 2 10 -3 0 -6 7 -12 15 -16 11 -4 8 4 -7 24 -12 17 -22 30 -22 30 -1 0
-8 -5 -16 -11z"/>
<path d="M6616 821 c-4 -5 3 -7 14 -4 23 6 26 13 6 13 -8 0 -17 -4 -20 -9z"/>
<path d="M1030 810 c0 -5 7 -7 15 -4 8 4 15 8 15 10 0 2 -7 4 -15 4 -8 0 -15
-4 -15 -10z"/>
<path d="M1918 813 c7 -3 16 -2 19 1 4 3 -2 6 -13 5 -11 0 -14 -3 -6 -6z"/>
<path d="M2666 804 c-5 -14 -4 -15 9 -4 17 14 19 20 6 20 -5 0 -12 -7 -15 -16z"/>
<path d="M2701 798 c-13 -20 -12 -22 1 -11 8 7 18 10 22 6 4 -4 4 0 0 10 -8
21 -6 21 -23 -5z"/>
<path d="M3028 813 c6 -2 9 -10 6 -15 -4 -7 -2 -8 5 -4 13 9 5 26 -12 25 -9 0
-8 -2 1 -6z"/>
<path d="M3996 807 c3 -10 9 -15 12 -12 3 3 0 11 -7 18 -10 9 -11 8 -5 -6z"/>
<path d="M5507 807 c-3 -8 1 -14 9 -14 16 0 19 13 5 21 -5 3 -11 0 -14 -7z"/>
<path d="M5827 808 c-4 -13 -1 -16 15 -13 11 3 23 7 27 11 3 4 -2 4 -11 1 -9
-3 -18 -1 -21 6 -2 6 -6 4 -10 -5z"/>
<path d="M6110 805 c0 -8 4 -15 10 -15 5 0 7 7 4 15 -4 8 -8 15 -10 15 -2 0
-4 -7 -4 -15z"/>
<path d="M6188 813 c6 -2 10 -8 8 -12 -3 -4 1 -8 9 -8 8 0 15 4 15 8 0 7 -26
20 -38 18 -4 0 -1 -3 6 -6z"/>
<path d="M6351 804 c0 -11 3 -14 6 -6 3 7 2 16 -1 19 -3 4 -6 -2 -5 -13z"/>
<path d="M6450 811 c0 -6 4 -13 10 -16 6 -3 7 1 4 9 -7 18 -14 21 -14 7z"/>
<path d="M6675 809 c-4 -6 -5 -12 -2 -15 2 -3 7 2 10 11 7 17 1 20 -8 4z"/>
<path d="M850 798 c0 -6 3 -8 7 -5 3 4 13 1 22 -6 14 -11 14 -10 2 6 -15 20
-31 22 -31 5z"/>
<path d="M970 795 c5 -7 6 -16 2 -21 -4 -5 -3 -5 2 -1 15 12 15 34 0 34 -9 0
-11 -4 -4 -12z"/>
<path d="M1203 799 c9 -6 14 -16 11 -22 -4 -7 -3 -8 1 -4 17 15 12 33 -9 34
-19 2 -19 1 -3 -8z"/>
<path d="M1877 795 c-4 -8 -3 -16 1 -19 4 -3 9 4 9 15 2 23 -3 25 -10 4z"/>
<path d="M2126 802 c-3 -5 1 -9 9 -9 8 0 12 4 9 9 -3 4 -7 8 -9 8 -2 0 -6 -4
-9 -8z"/>
<path d="M2273 791 c0 -11 5 -18 9 -15 4 3 5 11 1 19 -7 21 -12 19 -10 -4z"/>
<path d="M2353 791 c0 -11 5 -18 9 -15 4 3 5 11 1 19 -7 21 -12 19 -10 -4z"/>
<path d="M2391 807 c2 -1 13 -9 24 -17 19 -14 19 -14 6 3 -7 9 -18 17 -24 17
-6 0 -8 -1 -6 -3z"/>
<path d="M2445 800 c-3 -6 1 -7 9 -4 18 7 21 14 7 14 -6 0 -13 -4 -16 -10z"/>
<path d="M2576 793 c-5 -12 -3 -13 6 -6 7 5 25 9 41 8 15 -1 25 1 22 3 -13 14
-64 10 -69 -5z"/>
<path d="M2950 800 c0 -5 5 -10 10 -10 6 0 10 5 10 10 0 6 -4 10 -10 10 -5 0
-10 -4 -10 -10z"/>
<path d="M3136 793 c-4 -9 -2 -11 7 -6 6 4 18 8 25 9 25 4 23 12 -2 12 -14 0
-27 -7 -30 -15z"/>
<path d="M3220 800 c-8 -5 -10 -10 -5 -10 6 0 17 5 25 10 8 5 11 10 5 10 -5 0
-17 -5 -25 -10z"/>
<path d="M3346 796 c3 -8 13 -17 21 -20 25 -10 23 -3 -3 17 -18 13 -22 14 -18
3z"/>
<path d="M3482 797 c-8 -10 -6 -13 7 -13 11 0 17 6 14 13 -3 7 -6 13 -8 13 -1
0 -7 -6 -13 -13z"/>
<path d="M3555 800 c-3 -5 -1 -10 4 -10 6 0 11 5 11 10 0 6 -2 10 -4 10 -3 0
-8 -4 -11 -10z"/>
<path d="M3886 797 c3 -10 9 -15 12 -12 3 3 0 11 -7 18 -10 9 -11 8 -5 -6z"/>
<path d="M3915 801 c-3 -5 -2 -12 3 -15 5 -3 9 1 9 9 0 17 -3 19 -12 6z"/>
<path d="M3960 806 c0 -2 7 -9 15 -16 13 -11 14 -10 9 4 -5 14 -24 23 -24 12z"/>
<path d="M5384 798 c10 -6 22 -6 26 -2 5 5 -3 10 -18 11 -22 1 -24 0 -8 -9z"/>
<path d="M5620 806 c0 -2 7 -6 15 -10 8 -3 15 -1 15 4 0 6 -7 10 -15 10 -8 0
-15 -2 -15 -4z"/>
<path d="M6268 803 c7 -3 16 -2 19 1 4 3 -2 6 -13 5 -11 0 -14 -3 -6 -6z"/>
<path d="M1393 785 c0 -8 4 -12 9 -9 5 3 6 10 3 15 -9 13 -12 11 -12 -6z"/>
<path d="M6239 798 c-5 -19 -8 -50 -4 -46 7 7 15 48 9 48 -2 0 -4 -1 -5 -2z"/>
<path d="M2470 778 c0 -4 4 -8 9 -8 6 0 12 4 15 8 3 5 -1 9 -9 9 -8 0 -15 -4
-15 -9z"/>
<path d="M2900 786 c0 -2 8 -10 18 -17 15 -13 16 -12 3 4 -13 16 -21 21 -21
13z"/>
<path d="M3180 786 c0 -2 8 -10 18 -17 15 -13 16 -12 3 4 -13 16 -21 21 -21
13z"/>
<path d="M3430 776 c7 -7 13 -7 20 0 6 6 3 10 -10 10 -13 0 -16 -4 -10 -10z"/>
<path d="M3590 776 c7 -7 13 -7 20 0 6 6 3 10 -10 10 -13 0 -16 -4 -10 -10z"/>
<path d="M3840 780 c-9 -6 -10 -10 -3 -10 6 0 15 5 18 10 8 12 4 12 -15 0z"/>
<path d="M4140 780 c-9 -6 -10 -10 -3 -10 6 0 15 5 18 10 8 12 4 12 -15 0z"/>
<path d="M5318 783 c7 -3 16 -2 19 1 4 3 -2 6 -13 5 -11 0 -14 -3 -6 -6z"/>
<path d="M5674 771 c13 -12 18 -13 28 -2 11 10 9 11 -6 5 -12 -5 -17 -4 -13 3
3 5 -1 10 -9 10 -13 0 -13 -2 0 -16z"/>
<path d="M5866 778 c3 -4 15 -13 27 -18 20 -10 20 -10 5 3 -10 8 -16 16 -13
19 3 2 -2 5 -10 5 -8 0 -12 -4 -9 -9z"/>
<path d="M5999 788 c0 -2 -2 -13 -3 -26 -3 -21 -2 -21 16 -5 22 20 23 24 1 16
-11 -4 -14 -3 -9 5 4 7 5 12 2 12 -3 0 -6 -1 -7 -2z"/>
<path d="M6157 777 c4 -7 0 -8 -12 -3 -15 5 -16 4 -5 -9 12 -15 14 -15 22 0 5
8 15 12 21 9 7 -4 8 -3 4 1 -11 13 -38 15 -30 2z"/>
<path d="M6393 775 c0 -8 4 -12 9 -9 5 3 6 10 3 15 -9 13 -12 11 -12 -6z"/>
<path d="M6593 775 c0 -8 4 -12 9 -9 4 3 8 9 8 15 0 5 -4 9 -8 9 -5 0 -9 -7
-9 -15z"/>
<path d="M2949 763 c-13 -16 -12 -17 4 -4 16 13 21 21 13 21 -2 0 -10 -8 -17
-17z"/>
<path d="M3650 776 c0 -2 8 -10 18 -17 15 -13 16 -12 3 4 -13 16 -21 21 -21
13z"/>
<path d="M4055 771 c-3 -5 -2 -12 3 -15 5 -3 9 1 9 9 0 17 -3 19 -12 6z"/>
<path d="M4177 773 c-10 -9 -9 -23 1 -23 5 0 9 7 9 15 0 17 -1 18 -10 8z"/>
<path d="M5449 763 c-13 -16 -12 -17 4 -4 16 13 21 21 13 21 -2 0 -10 -8 -17
-17z"/>
<path d="M5769 763 c-13 -16 -12 -17 4 -4 16 13 21 21 13 21 -2 0 -10 -8 -17
-17z"/>
<path d="M1346 758 c3 -5 10 -6 15 -3 13 9 11 12 -6 12 -8 0 -12 -4 -9 -9z"/>
<path d="M1935 760 c3 -5 8 -10 11 -10 2 0 4 5 4 10 0 6 -5 10 -11 10 -5 0 -7
-4 -4 -10z"/>
<path d="M2319 753 c-13 -16 -12 -17 4 -4 16 13 21 21 13 21 -2 0 -10 -8 -17
-17z"/>
<path d="M3916 753 c-6 -14 -5 -15 5 -6 7 7 10 15 7 18 -3 3 -9 -2 -12 -12z"/>
<path d="M5020 766 c0 -2 8 -10 18 -17 15 -13 16 -12 3 4 -13 16 -21 21 -21
13z"/>
<path d="M5577 755 c-4 -8 -3 -16 1 -19 4 -3 9 4 9 15 2 23 -3 25 -10 4z"/>
<path d="M6275 759 c-3 -4 2 -6 10 -5 21 3 28 13 10 13 -9 0 -18 -4 -20 -8z"/>
<path d="M2715 749 c-4 -6 -5 -12 -2 -15 2 -3 7 2 10 11 7 17 1 20 -8 4z"/>
<path d="M2875 751 c-3 -5 -2 -12 3 -15 5 -3 9 1 9 9 0 17 -3 19 -12 6z"/>
<path d="M4015 751 c-3 -5 -2 -12 3 -15 5 -3 9 1 9 9 0 17 -3 19 -12 6z"/>
<path d="M5615 751 c-3 -5 -2 -12 3 -15 5 -3 9 1 9 9 0 17 -3 19 -12 6z"/>
<path d="M6573 745 c0 -8 4 -12 9 -9 5 3 6 10 3 15 -9 13 -12 11 -12 -6z"/>
<path d="M3190 740 c0 -5 5 -10 11 -10 5 0 7 5 4 10 -3 6 -8 10 -11 10 -2 0
-4 -4 -4 -10z"/>
<path d="M3550 739 c0 -5 5 -7 10 -4 6 3 10 8 10 11 0 2 -4 4 -10 4 -5 0 -10
-5 -10 -11z"/>
<path d="M3695 741 c-3 -5 -2 -12 3 -15 5 -3 9 1 9 9 0 17 -3 19 -12 6z"/>
<path d="M3815 741 c-3 -5 -2 -12 3 -15 5 -3 9 1 9 9 0 17 -3 19 -12 6z"/>
<path d="M3875 740 c3 -5 8 -10 11 -10 2 0 4 5 4 10 0 6 -5 10 -11 10 -5 0 -7
-4 -4 -10z"/>
<path d="M4265 740 c-3 -6 1 -7 9 -4 18 7 21 14 7 14 -6 0 -13 -4 -16 -10z"/>
<path d="M4350 746 c0 -2 7 -7 16 -10 8 -3 12 -2 9 4 -6 10 -25 14 -25 6z"/>
<path d="M5650 739 c0 -5 5 -7 10 -4 6 3 10 8 10 11 0 2 -4 4 -10 4 -5 0 -10
-5 -10 -11z"/>
<path d="M5735 740 c3 -5 8 -10 11 -10 2 0 4 5 4 10 0 6 -5 10 -11 10 -5 0 -7
-4 -4 -10z"/>
<path d="M5935 740 c3 -5 8 -10 11 -10 2 0 4 5 4 10 0 6 -5 10 -11 10 -5 0 -7
-4 -4 -10z"/>
<path d="M715 731 c-3 -5 -2 -12 3 -15 5 -3 9 1 9 9 0 17 -3 19 -12 6z"/>
<path d="M4949 723 c-13 -16 -12 -17 4 -4 16 13 21 21 13 21 -2 0 -10 -8 -17
-17z"/>
</g>
</svg>
